# xmcd
#
# Track frame offsets:
#	150
#	14040
#	24317
#	34100
#	51450
#	70200
#	80360
#	89742
#	114177
#	126722
#	136310
#	152205
#	161650
#	174462
#	182020
#
# Disc length: 2595 seconds
#
# Revision: 0
# Processed by: cddbd v1.4PL0 Copyright (c) Steve Scherf et al.
# Submitted via: dBpowerAMP V4.0
#
DISCID=d00a210f
DTITLE=Rusty McHugh and Mike Fincher - Down and Out In Paradise
DYEAR=1900
DGENRE=Country
TTITLE0=Stuck In This Shithole With You
TTITLE1=Hey, Lady! Please Don't Show Those Tits
TTITLE2=I Get My Women At The Waffle House
TTITLE3=Walmart II - The Return
TTITLE4=Pucker Up Dixie and Give Me A Kiss
TTITLE5=I Went Home With A Mermaid and Woke Up With A Manatee
TTITLE6=Wild Ass Women
TTITLE7=On A Bus Back To Bermingham
TTITLE8=What The F**k Were We Thinking
TTITLE9=A Bloody Mary and Two Short Straws
TTITLE10=Down and Out In Paradise
TTITLE11=I Always Get Battered When She Gets Fried
TTITLE12=I Can't Wait 'Til I Sober Up So I Can Get Drunk Again
TTITLE13=The Mullet Toss Song
TTITLE14=Audience Comments
EXTD=
EXTT0=
EXTT1=
EXTT2=
EXTT3=
EXTT4=
EXTT5=
EXTT6=
EXTT7=
EXTT8=
EXTT9=
EXTT10=
EXTT11=
EXTT12=
EXTT13=
EXTT14=
PLAYORDER=
